<svg xmlns="http://www.w3.org/2000/svg" style="display:none" aria-hidden="true">
<symbol id="p-speaker-high" viewBox="0 0 256 256"><path d="M160,32.25V223.69a8.29,8.29,0,0,1-3.91,7.18,8,8,0,0,1-9-.56l-65.57-51A4,4,0,0,1,80,176.16V79.84a4,4,0,0,1,1.55-3.15l65.57-51a8,8,0,0,1,10,.16A8.27,8.27,0,0,1,160,32.25ZM60,80H32A16,16,0,0,0,16,96v64a16,16,0,0,0,16,16H60a4,4,0,0,0,4-4V84A4,4,0,0,0,60,80Zm126.77,20.84a8,8,0,0,0-.72,11.3,24,24,0,0,1,0,31.72,8,8,0,1,0,12,10.58,40,40,0,0,0,0-52.88A8,8,0,0,0,186.74,100.84Zm40.89-26.17a8,8,0,1,0-11.92,10.66,64,64,0,0,1,0,85.34,8,8,0,1,0,11.92,10.66,80,80,0,0,0,0-106.66Z"/></symbol>
<symbol id="p-speaker-slash" viewBox="0 0 256 256"><path d="M213.92,210.62a8,8,0,1,1-11.84,10.76L160,175.09v48.6a8.29,8.29,0,0,1-3.91,7.18,8,8,0,0,1-9-.56l-65.55-51A4,4,0,0,1,80,176.18V87.09L42.08,45.38A8,8,0,1,1,53.92,34.62Zm-27.21-55.46a8,8,0,0,0,11.29-.7,40,40,0,0,0,0-52.88,8,8,0,1,0-12,10.57,24,24,0,0,1,0,31.72A8,8,0,0,0,186.71,155.16Zm40.92-80.49a8,8,0,1,0-11.92,10.66,64,64,0,0,1,0,85.34,8,8,0,1,0,11.92,10.66,80,80,0,0,0,0-106.66ZM153,119.87a4,4,0,0,0,7-2.7V32.25a8.27,8.27,0,0,0-2.88-6.4,8,8,0,0,0-10-.16L103.83,59.33a4,4,0,0,0-.5,5.85ZM60,80H32A16,16,0,0,0,16,96v64a16,16,0,0,0,16,16H60a4,4,0,0,0,4-4V84A4,4,0,0,0,60,80Z"/></symbol>
<symbol id="p-share-network" viewBox="0 0 256 256"><path d="M212,200a36,36,0,1,1-69.85-12.25l-53-34.05a36,36,0,1,1,0-51.4l53-34a36.09,36.09,0,1,1,8.67,13.45l-53,34.05a36,36,0,0,1,0,24.5l53,34.05A36,36,0,0,1,212,200Z"/></symbol>
<symbol id="p-hand-tap" viewBox="0 0 256 256"><path d="M64,64a48,48,0,0,1,96,0,8,8,0,0,1-16,0,32,32,0,0,0-64,0,8,8,0,0,1-16,0Zm143.23,56c-8.61.4-15.23,7.82-15.23,16.43v7.28a8.17,8.17,0,0,1-7.47,8.25,8,8,0,0,1-8.53-8V120.45c0-8.61-6.62-16-15.23-16.43A16,16,0,0,0,144,120v15.73a8.17,8.17,0,0,1-7.47,8.25,8,8,0,0,1-8.53-8V64.45c0-8.61-6.62-16-15.23-16.43A16,16,0,0,0,96,64V183.74a8.19,8.19,0,0,1-6.72,8.16l-.12,0a6.09,6.09,0,0,1-6-3.09l-21-36.44c-4.3-7.46-13.74-10.57-21.4-6.62A16,16,0,0,0,34.15,168L65.1,228.05A8,8,0,0,0,72,232H208a8,8,0,0,0,7.16-4.42c.36-.72,8.84-15.06,8.84-40.65V136A16,16,0,0,0,207.23,120Z"/></symbol>
<symbol id="p-lightning" viewBox="0 0 256 256"><path d="M213.85,125.46l-112,120a8,8,0,0,1-13.69-7l14.66-73.33L45.19,143.49a8,8,0,0,1-3-13l112-120a8,8,0,0,1,13.69,7L153.18,90.9l57.63,21.61a8,8,0,0,1,3,12.95Z"/></symbol>
<symbol id="p-star" viewBox="0 0 256 256"><path d="M234.29,114.85l-45,38.83L203,211.75a16.4,16.4,0,0,1-24.5,17.82L128,198.49,77.47,229.57A16.4,16.4,0,0,1,53,211.75l13.76-58.07-45-38.83A16.46,16.46,0,0,1,31.08,86l59-4.76,22.76-55.08a16.36,16.36,0,0,1,30.27,0l22.75,55.08,59,4.76a16.46,16.46,0,0,1,9.37,28.86Z"/></symbol>
<symbol id="p-coffee" viewBox="0 0 256 256"><path d="M208,80H32a8,8,0,0,0-8,8v48a96.3,96.3,0,0,0,32.54,72H32a8,8,0,0,0,0,16H208a8,8,0,0,0,0-16H183.46a96.59,96.59,0,0,0,27-40.09A40,40,0,0,0,248,128v-8A40,40,0,0,0,208,80Zm24,48a24,24,0,0,1-17.2,23,95.78,95.78,0,0,0,1.2-15V97.38A24,24,0,0,1,232,120ZM112,56V24a8,8,0,0,1,16,0V56a8,8,0,0,1-16,0Zm32,0V24a8,8,0,0,1,16,0V56a8,8,0,0,1-16,0ZM80,56V24a8,8,0,0,1,16,0V56a8,8,0,0,1-16,0Z"/></symbol>
<symbol id="g-donut" viewBox="0 0 512 512"><path d="M256 92.3c-53.2 0-102.8 14.8-142.2 37.4l14.2 22.4-15.2 9.6-14.23-22.5c-2.17 1.4-4.3 2.9-6.39 4.4-38.75 27.9-63.12 63.7-66.7 97.2 2.98 6.7 8.12 17.5 14.74 28.8 10.73 18.3 26.22 36.6 37.19 39.8 17.92-2.5 33.99-22.1 50.29-19.3 25.1 5.1 38.1 28.4 50.3 48 9.3 14.5 21.1 34.7 38.1 36.5 6.2.7 11.6-1.2 17.7-5.2 6.1-4.1 12.5-10.4 19.2-17.3 13.2-13.7 27.7-30.9 49.5-33.6 15.3-2 27.6 6.2 38.1 12.4 10.4 6.1 18.7 10.2 25.5 8.6h.1c11.1-5.4 16.8-14.8 22.1-23.2l-35.6-25.4 10.4-14.6 35.9 25.6c5.1-5.5 11.4-10 19.7-11.8 11.5-2.5 20.4 3.8 27.1 8 6.6 4.2 11.2 6.3 13.8 5.8 3.1-.6 11.8-7 18.1-13.8 2-2.2 3.9-4.4 5.4-6.3 2.6-10.9 3.9-22.4 3.9-34.5 0-1.5-.1-3-.1-4.4l-37.6 18.7-8-16.2 42.4-21.2c-8-29-30.7-58.7-63.9-82.6-42-30.3-100.3-51.3-163.8-51.3zm69.1 14.2l6 17-50.3 18.1-6-17zm-140.2 11l33.4 9.6-5 17.2-33.4-9.5zm184.4 23l39.7 27.6-10.2 14.8-39.7-27.6zm-47.6 12.8l10.8 14.4-33 24.5-10.8-14.4zm-157 34l2.6 17.8-45.6 6.9-2.6-17.8zm91.3 3.6c17.8 0 34 3.2 46.5 9.1 12.5 5.8 22.9 15 22.9 28s-10.4 22.2-22.9 28c-12.5 5.9-28.7 9.1-46.5 9.1s-34-3.2-46.5-9.1c-12.5-5.8-22.9-15-22.9-28s10.4-22.2 22.9-28c12.5-5.9 28.7-9.1 46.5-9.1zm146.2 5.6l4.6 17.4-47.2 12.2-4.6-17.4zM256 208.9c-15.6 0-29.6 3-38.9 7.4-9.4 4.3-12.5 9.2-12.5 11.7s3.1 7.4 12.5 11.7c9.3 4.4 23.3 7.4 38.9 7.4 15.6 0 29.6-3 38.9-7.4 9.4-4.3 12.5-9.2 12.5-11.7s-3.1-7.4-12.5-11.7c-9.3-4.4-23.3-7.4-38.9-7.4zm-194.44 18l39.74 15.4-6.5 16.8-39.74-15.4zm-32 59.9c9.06 35.6 31.19 64.7 62.55 86.9 41.69 29.4 99.99 46 163.89 46 63.9 0 122.2-16.6 163.9-46 21.1-14.9 38.1-33 49.6-54.2-2 .9-4.1 1.6-6.3 2-11.5 2.4-20.4-4-27-8.2-6.7-4.1-11.2-6.2-13.7-5.6-7.2 1.6-13.4 9.7-20.6 20.8-7.3 11-15.6 25-31.8 28.6-15.2 3.4-28-4.4-38.7-10.7-10.6-6.3-19.5-11-26.6-10.1-16.8 5-29.2 18.3-38.9 28.3-6.8 7.1-13.8 14.3-22.1 19.8s-18.3 9.2-29.5 8.2c-26.8-4.9-39.2-24.9-51.6-45-12.3-19.7-23.5-36.8-38.6-39.9-18.7 3-31.62 24.4-51.74 18.9-18.43-5.4-32.01-22.5-42.8-39.8zm223.64 2.8l2.6 17.8-50.4 7.4-2.6-17.8z"/></symbol>
<symbol id="g-noodles" viewBox="0 0 512 512"><path d="M21.35 26.1l-2.68 15.78L382.7 103.9l2.6-15.79L21.35 26.1zm-.55 57.94l-1.58 15.92L383.2 136l1.6-16-364-35.96zm202.6 52.16c-1.8 7.8-7.7 19.5-14.3 31C201.1 181 192 194 192 208c0 18.7 9.8 31.1 18 40.3 8.2 9.3 14 15.3 14 23.7 0 5.7-3.3 14.8-7.8 24h18c3.4-7.9 5.8-16 5.8-24 0-15.5-10.2-25.5-18-34.3-7.8-8.8-14-16.4-14-29.7 0-4.9 6.9-18.8 14.9-32.8 7-12.1 14.8-24.6 16.7-37.4l-16.2-1.6zm40 4c-1.7 7.5-7.5 18.2-14.2 28.8-8 12.8-17.2 25-17.2 39 0 18.7 9.8 31.1 18 40.3 8.2 9.3 14 15.3 14 23.7 0 5.7-3.3 14.8-7.8 24h18c3.4-7.9 5.8-16 5.8-24 0-15.5-10.2-25.5-18-34.3-7.8-8.8-14-16.4-14-29.7 0-4.9 6.8-17.6 14.8-30.5 7-11.3 14.8-23.1 16.8-35.8l-16.2-1.5zm40 3.9c-1.7 7.2-7.4 16.9-14 26.7-8 11.8-17.4 23.2-17.4 37.2 0 18.7 9.8 31.1 18 40.3 8.2 9.3 14 15.3 14 23.7 0 5.7-3.3 14.8-7.8 24h18c3.4-7.9 5.8-16 5.8-24 0-15.5-10.2-25.5-18-34.3-7.8-8.8-14-16.4-14-29.7 0-4.9 6.6-16.4 14.6-28.3 7-10.4 15-21.5 16.9-34l-16.1-1.6zM40.33 312c1.68 42.5 16.6 76.8 48.58 101.7C122.9 440.1 177.1 456 256 456s133.1-15.9 167.1-42.3c32-24.9 46.9-59.2 48.6-101.7H40.33zM192 472v16h128v-16H192z"/></symbol>
</svg>
